# xmcd
#
# Track frame offsets: 
#        150
#        10716
#        23108
#        36808
#        48751
#        57650
#        69100
#        80199
#        93035
#        105616
#        118727
#        130605
#        141157
#        152994
#        166770
#        179067
#        189973
#        203988
#        217103
#        229087
#
# Disc length: 3225 seconds
#
# Revision: 0
# Processed by: cddbd v1.5.2PL0 Copyright (c) Steve Scherf et al.
# Submitted via: ExactAudioCopyFreeDBPlugin 1.0
#
DISCID=100c9714
DTITLE=Various Artist - Country Greatest ever
DYEAR=1900
DGENRE=Country
TTITLE0=Everly Brothers - All I Have To Do Is Dream 
TTITLE1=Jerry Lee Lewis - Crazy Arms 
TTITLE2=Ernest Tubb - Goodnight Irene 
TTITLE3=The First Edition -  Me and Bobby McGee
TTITLE4=Roy Orbison - Claudette
TTITLE5=Willi Nelson  - Night Live 
TTITLE6=Roy Rogers  - A Gay Ranchero 
TTITLE7=Tex Williams and Spade Cooley -  Shame On You
TTITLE8=Merle Travis - What A Shame
TTITLE9=Jambalaya - Jambalaya
TTITLE10=Kitty Wells - Paying For That Back Street Affair
TTITLE11=Jim Reeves - He'll Have To Go
TTITLE12=Gene Autry - Back In the Saddle Again
TTITLE13=Patti Page - Tennessee Waltz
TTITLE14=Eddy Arnold - I'll Hold You In My Heart
TTITLE15=Donna Fargo - Wishful Thinking
TTITLE16=Hoyt Axton - Look Down That Lonesome Road
TTITLE17=Roy Acuff  - Great Speckled Bird 
TTITLE18=Ernest Tubb - I Love You Because
TTITLE19=Bob Wills and His Texas Playboys - Take me Back To Tulsa
EXTD=
EXTT0=
EXTT1=
EXTT2=
EXTT3=
EXTT4=
EXTT5=
EXTT6=
EXTT7=
EXTT8=
EXTT9=
EXTT10=
EXTT11=
EXTT12=
EXTT13=
EXTT14=
EXTT15=
EXTT16=
EXTT17=
EXTT18=
EXTT19=
PLAYORDER=
